<svg xmlns="http://www.w3.org/2000/svg" viewBox="0 0 699.8 524.46"><defs><style>.cls-1{fill:#fff;}</style></defs><g id="Layer_2" data-name="Layer 2"><g id="Capa_1" data-name="Capa 1"><path class="cls-1" d="M663,0H36.79A36.83,36.83,0,0,0,0,36.79V487.67a36.83,36.83,0,0,0,36.79,36.79H663a36.83,36.83,0,0,0,36.79-36.79V36.79A36.83,36.83,0,0,0,663,0ZM212.91,501H36.79a13.32,13.32,0,0,1-13.31-13.31V399.22H212.91Zm0-125.25H23.48V274H212.91Zm0-125.24H23.48V148.73H212.91Zm0-125.25H23.48V36.79A13.32,13.32,0,0,1,36.79,23.48H212.91ZM676.32,487.67A13.32,13.32,0,0,1,663,501H486.89V399.22H676.32Zm0-111.94H486.89V274H676.32Zm0-125.24H486.89V162a13.32,13.32,0,0,1,13.3-13.3H676.32Zm0-125.25H500.19A36.84,36.84,0,0,0,463.4,162V501h-227V23.48H663a13.32,13.32,0,0,1,13.31,13.31Z"/></g></g></svg>